<svg width="28" height="33" viewBox="0 0 28 33" fill="none" xmlns="http://www.w3.org/2000/svg">
<path d="M14.2399 0C16.1045 0 17.8566 0.432658 19.4962 1.29797C21.1358 2.16329 22.5664 3.34327 23.788 4.8379C25.0097 6.33254 25.9741 8.07628 26.6814 10.0691C27.3887 12.062 27.7423 14.199 27.7423 16.4803C27.7423 18.7616 27.3887 20.9052 26.6814 22.9112C25.9741 24.9172 25.0097 26.6675 23.788 28.1621C22.5664 29.6567 21.1358 30.8367 19.4962 31.702C17.8566 32.5673 16.1045 33 14.2399 33C12.3752 33 10.6285 32.5673 8.99961 31.702C7.37074 30.8367 5.94548 29.6567 4.72383 28.1621C3.50217 26.6675 2.53771 24.9172 1.83044 22.9112C1.12317 20.9052 0.769531 18.7616 0.769531 16.4803C0.769531 14.199 1.12317 12.062 1.83044 10.0691C2.53771 8.07628 3.50217 6.33254 4.72383 4.8379C5.94548 3.34327 7.37074 2.16329 8.99961 1.29797C10.6285 0.432658 12.3752 0 14.2399 0ZM19.3194 7.19785H16.4581C15.9009 7.19785 15.3865 7.31585 14.915 7.55185C14.4435 7.78784 14.0309 8.1025 13.6773 8.49583C13.3236 8.88915 13.0504 9.33492 12.8575 9.83313C12.6646 10.3313 12.5681 10.8296 12.5681 11.3278V13.4124H10.0284V17.503H12.5681V25.7628H15.9437V17.503H18.4513V13.4124H15.9437V12.3504C15.9437 12.0358 16.0455 11.7867 16.2492 11.6031C16.4528 11.4195 16.6296 11.3278 16.7796 11.3278H19.3194V7.19785Z" fill="#79AC78"/>
</svg>
