<svg width="23" height="27" viewBox="0 0 23 27" fill="none" xmlns="http://www.w3.org/2000/svg">
<path d="M11.6914 0.0534162C13.2131 0.0498269 14.6435 0.395353 15.9827 1.08999C17.3218 1.78463 18.4908 2.73342 19.4896 3.93635C20.4885 5.13929 21.2777 6.5436 21.8574 8.14928C22.4371 9.75497 22.7283 11.4776 22.7311 13.3173C22.7339 15.1569 22.448 16.8862 21.8733 18.5052C21.2985 20.1242 20.5136 21.5375 19.5185 22.7451C18.5233 23.9528 17.3572 24.9071 16.0202 25.608C14.6832 26.309 13.2539 26.6613 11.7322 26.6648C10.2104 26.6684 8.78438 26.3229 7.45399 25.6282C6.1236 24.9336 4.95899 23.9848 3.96015 22.7818C2.96131 21.5789 2.17205 20.1693 1.59236 18.5531C1.01268 16.9368 0.721429 15.2088 0.718609 13.3692C0.71579 11.5296 1.00175 9.80553 1.57649 8.19712C2.15124 6.58871 2.93618 5.18069 3.93132 3.97305C4.92647 2.76542 6.08816 1.81113 7.41642 1.1102C8.74467 0.409266 10.1697 0.0570055 11.6914 0.0534162ZM15.8457 5.84804L13.5106 5.85355C13.0558 5.85462 12.6362 5.95076 12.2517 6.14198C11.8672 6.3332 11.5309 6.58773 11.2427 6.90559C10.9546 7.22346 10.7322 7.58345 10.5754 7.98559C10.4186 8.38772 10.3405 8.78967 10.3411 9.19143L10.3437 10.8725L8.27096 10.8774L8.27601 14.176L10.3487 14.1712L10.3589 20.8319L13.1138 20.8254L13.1035 14.1647L15.15 14.1598L15.145 10.8612L13.0985 10.866L13.0972 10.0096C13.0968 9.75585 13.1796 9.55478 13.3455 9.40637C13.5114 9.25796 13.6556 9.18361 13.7781 9.18332L15.8508 9.17843L15.8457 5.84804Z" fill="white"/>
</svg>
