<svg width="23" height="27" viewBox="0 0 23 27" fill="none" xmlns="http://www.w3.org/2000/svg">
<path d="M14.7499 13.4747C14.7493 13.1143 14.7049 12.7223 14.6165 12.2986L15.721 12.2962L15.7318 18.7185C15.7321 18.8881 15.6841 19.026 15.5879 19.1322C15.4916 19.2384 15.3733 19.2916 15.2331 19.2919L6.58061 19.3106C6.44035 19.3109 6.3263 19.2581 6.23846 19.1523C6.15062 19.0465 6.10655 18.9089 6.10627 18.7393L6.0955 12.317L7.17377 12.3146C7.08682 12.7387 7.04364 13.131 7.04425 13.4913C7.04531 14.1272 7.14714 14.731 7.34973 15.3029C7.55232 15.8747 7.82928 16.3669 8.18063 16.7795C8.53198 17.1921 8.94456 17.5197 9.41835 17.7624C9.89215 18.0052 10.392 18.126 10.918 18.1248C11.444 18.1237 11.9435 18.0008 12.4165 17.756C12.8895 17.5112 13.2965 17.1818 13.6377 16.7677C13.9789 16.3537 14.2499 15.8603 14.4505 15.2876C14.6512 14.7148 14.751 14.1105 14.7499 13.4747ZM10.9151 16.3762C10.582 16.3769 10.2663 16.3034 9.96795 16.1557C9.66964 16.0079 9.41068 15.8018 9.19108 15.5374C8.97147 15.2729 8.80001 14.9659 8.6767 14.6164C8.55338 14.267 8.49138 13.8909 8.49071 13.4882C8.49003 13.0854 8.55076 12.7038 8.67289 12.3432C8.79501 11.9826 8.96543 11.6696 9.18415 11.4042C9.40287 11.1387 9.66113 10.9315 9.95894 10.7825C10.2567 10.6335 10.5722 10.5586 10.9053 10.5579C11.2385 10.5572 11.5498 10.6307 11.8393 10.7785C12.1289 10.9262 12.3835 11.1323 12.6031 11.3968C12.8227 11.6613 12.9941 11.9735 13.1175 12.3336C13.2408 12.6937 13.3028 13.0751 13.3035 13.4778C13.3042 13.8805 13.2434 14.2569 13.1213 14.6069C12.9991 14.9569 12.8287 15.2646 12.61 15.53C12.3913 15.7954 12.1374 16.0026 11.8483 16.1516C11.5593 16.3006 11.2482 16.3755 10.9151 16.3762ZM15.2136 7.65538C15.3538 7.65508 15.4723 7.70781 15.5689 7.81358C15.6655 7.91935 15.7139 8.05702 15.7142 8.22659L15.7172 9.97525C15.7174 10.1448 15.6695 10.2827 15.5732 10.3889C15.4769 10.4951 15.3587 10.5483 15.2184 10.5486L13.772 10.5517C13.6317 10.552 13.5177 10.4993 13.4298 10.3935C13.342 10.2877 13.2979 10.15 13.2976 9.98047L13.2947 8.23181C13.2944 8.06224 13.338 7.92437 13.4255 7.8182C13.513 7.71203 13.6269 7.6588 13.7671 7.6585L15.2136 7.65538ZM16.4897 0.14926C17.2436 0.147634 17.9583 0.32096 18.6339 0.669236C19.3095 1.01751 19.8977 1.49315 20.3984 2.09616C20.8991 2.69916 21.2948 3.40308 21.5854 4.20789C21.876 5.01271 22.0221 5.87084 22.0237 6.78226L22.0459 20.0721C22.0475 20.9835 21.9043 21.8475 21.6163 22.6642C21.3284 23.4809 20.9351 24.1918 20.4364 24.7969C19.9378 25.4021 19.3512 25.8803 18.6768 26.2315C18.0024 26.5826 17.2882 26.7591 16.5343 26.7607L5.54117 26.7844C4.78725 26.786 4.07688 26.6127 3.41004 26.2644C2.74321 25.9161 2.15944 25.4404 1.65874 24.8374C1.15804 24.2344 0.762363 23.5252 0.471702 22.7098C0.181042 21.8944 0.0349478 21.031 0.0334199 20.1195L0.01114 6.82972C0.00961199 5.9183 0.152819 5.05955 0.440761 4.25349C0.728703 3.44742 1.12201 2.74181 1.62069 2.13665C2.11936 1.53149 2.70153 1.05332 3.36719 0.702154C4.03285 0.350985 4.74264 0.174588 5.49655 0.172963L16.4897 0.14926ZM17.1597 7.65118C17.1589 7.16368 17.018 6.75066 16.7369 6.41213C16.4558 6.0736 16.1136 5.90477 15.7103 5.90564L6.08479 5.9264C5.68153 5.92726 5.33992 6.09757 5.05997 6.43731C4.78001 6.77705 4.64044 7.19067 4.64126 7.67817L4.66076 19.3147C4.66158 19.8022 4.80254 20.2152 5.08363 20.5538C5.36473 20.8923 5.7069 21.0611 6.11016 21.0602L15.7357 21.0395C16.139 21.0386 16.4806 20.8683 16.7605 20.5286C17.0405 20.1888 17.1801 19.7752 17.1792 19.2877L17.1597 7.65118Z" fill="white"/>
</svg>
