<svg width="23" height="28" viewBox="0 0 23 28" fill="none" xmlns="http://www.w3.org/2000/svg">
<path d="M17.4583 0.820419C18.2123 0.818641 18.9226 0.991832 19.5894 1.33999C20.2562 1.68815 20.8399 2.16369 21.3405 2.76659C21.8411 3.36949 22.2367 4.07333 22.5272 4.87809C22.8177 5.68285 22.9637 6.54094 22.9651 7.45236L22.9854 20.7422C22.9868 21.6536 22.8435 22.5177 22.5555 23.3344C22.2674 24.1511 21.874 24.8621 21.3753 25.4674C20.8765 26.0726 20.2943 26.5509 19.6286 26.9022C18.9628 27.2535 18.253 27.4301 17.4991 27.4318L6.47972 27.4578C5.72581 27.4596 5.01546 27.2864 4.34867 26.9383C3.68189 26.5901 3.09819 26.1146 2.59758 25.5117C2.09696 24.9088 1.70139 24.1996 1.41084 23.3843C1.1203 22.5689 0.97433 21.7055 0.972933 20.7941L0.952566 7.50428C0.95117 6.59286 1.0945 5.73409 1.38256 4.92796C1.67062 4.12183 2.06403 3.41614 2.56279 2.81088C3.06155 2.20562 3.64378 1.72734 4.3095 1.37603C4.97521 1.02473 5.68502 0.848189 6.43894 0.84641L17.4583 0.820419ZM8.53188 10.8248L5.77045 10.8313L5.78702 21.6412L8.54845 21.6347L8.53188 10.8248ZM7.163 9.96956C7.53119 9.96869 7.85092 9.80897 8.12219 9.49039C8.39347 9.17181 8.52875 8.77937 8.52803 8.31306C8.52732 7.84675 8.39083 7.45495 8.11859 7.13765C7.84634 6.82035 7.52612 6.66214 7.15793 6.663C6.77221 6.66391 6.44371 6.82366 6.17244 7.14224C5.90117 7.46082 5.76589 7.85326 5.7666 8.31957C5.76732 8.78588 5.9038 9.17768 6.17605 9.49498C6.44829 9.81228 6.77728 9.97047 7.163 9.96956ZM18.1644 15.3486C18.1632 14.5855 17.9867 13.8388 17.635 13.1084C17.2832 12.3779 16.8265 11.8226 16.2648 11.4424C15.7559 11.1045 15.1639 10.9257 14.4888 10.9061C13.8138 10.8865 13.2047 11.0257 12.6616 11.3237L12.6609 10.815L9.89944 10.8215L9.91601 21.6314L12.6774 21.6249L12.6673 15.0118L13.7971 14.3415C13.9373 14.2564 14.1301 14.2135 14.3755 14.2129C14.621 14.2124 14.8052 14.2649 14.9281 14.3706C15.0334 14.4339 15.1388 14.5715 15.2443 14.7832C15.3498 14.9949 15.4027 15.1855 15.403 15.3551L15.4126 21.6185L18.174 21.612L18.1644 15.3486Z" fill="white"/>
</svg>
