<svg width="23" height="23" viewBox="0 0 23 23" fill="none" xmlns="http://www.w3.org/2000/svg">
<path d="M22.3446 3.40497C21.6954 4.55108 20.9424 5.48283 20.0855 6.20022L20.0866 6.95135C20.0894 8.73975 19.8111 10.5556 19.2517 12.399C18.6924 14.2424 17.8739 15.9076 16.7963 17.3945C15.7187 18.8814 14.3817 20.1007 12.7855 21.0523C11.1893 22.0039 9.35562 22.4822 7.28455 22.487C5.98274 22.4901 4.75456 22.2784 3.60002 21.8519C2.44548 21.4254 1.36463 20.8199 0.357479 20.0354C0.535054 20.0707 0.712615 20.0971 0.890163 20.1146C1.06771 20.1321 1.24524 20.1406 1.42276 20.1402C2.48789 20.1377 3.5009 19.9207 4.46181 19.4892C5.42272 19.0577 6.28726 18.4834 7.05541 17.7662C6.04941 17.7328 5.16865 17.3682 4.41312 16.6726C3.65759 15.9769 3.13104 15.0749 2.83347 13.9668C2.98151 14.038 3.12211 14.0735 3.25525 14.0731L3.67686 14.0722C4.09107 14.0712 4.47562 14.0166 4.83049 13.9085C3.79452 13.6248 2.93553 12.9919 2.25353 12.0099C1.57153 11.0279 1.22951 9.87516 1.22748 8.55175L1.2274 8.49809C1.55313 8.67617 1.87882 8.82741 2.20446 8.95183C2.53011 9.07625 2.88524 9.13801 3.26987 9.1371C2.67737 8.63775 2.1956 7.99506 1.82456 7.20903C1.45352 6.42301 1.26729 5.56501 1.26586 4.63504C1.26433 3.63353 1.47004 2.72096 1.88299 1.89732C3.00981 3.54 4.37284 4.86915 5.97208 5.88477C7.57132 6.90039 9.30301 7.45965 11.1671 7.56256C11.0777 7.13355 11.0327 6.72233 11.0321 6.32888C11.031 5.57775 11.1482 4.87105 11.3839 4.20878C11.6196 3.54651 11.9441 2.96452 12.3576 2.46279C12.771 1.96106 13.2512 1.56647 13.7981 1.27904C14.345 0.991603 14.9292 0.847152 15.5505 0.845687C16.2014 0.844152 16.8082 0.994735 17.3708 1.29744C17.9334 1.60014 18.4222 2.01926 18.8372 2.55481C19.3696 2.44625 19.8724 2.27516 20.3454 2.04155C20.8184 1.80794 21.2766 1.52966 21.7199 1.2067C21.3669 2.53096 20.7027 3.55192 19.7275 4.26958C20.674 4.08851 21.5463 3.8003 22.3446 3.40497Z" fill="white"/>
</svg>
