<svg width="27" height="33" viewBox="0 0 27 33" fill="none" xmlns="http://www.w3.org/2000/svg">
<path d="M18.0463 16.5197C18.0463 16.0729 17.9926 15.5866 17.8852 15.0609H19.2387V23.0251C19.2387 23.2354 19.1796 23.4062 19.0614 23.5376C18.9433 23.6691 18.7982 23.7348 18.6264 23.7348H8.02417C7.8523 23.7348 7.71265 23.6691 7.60523 23.5376C7.49781 23.4062 7.44411 23.2354 7.44411 23.0251V15.0609H8.76535C8.65794 15.5866 8.60423 16.0729 8.60423 16.5197C8.60423 17.3082 8.72776 18.0573 8.97482 18.767C9.22188 19.4767 9.56025 20.0878 9.98992 20.6004C10.4196 21.1129 10.9245 21.5203 11.5045 21.8226C12.0846 22.1249 12.6969 22.276 13.3414 22.276C13.9859 22.276 14.5982 22.1249 15.1782 21.8226C15.7583 21.5203 16.2578 21.1129 16.6767 20.6004C17.0957 20.0878 17.4287 19.4767 17.6757 18.767C17.9228 18.0573 18.0463 17.3082 18.0463 16.5197ZM13.3414 20.1075C12.9332 20.1075 12.5465 20.0155 12.1813 19.8315C11.816 19.6476 11.4992 19.3913 11.2306 19.0627C10.9621 18.7342 10.7526 18.353 10.6022 17.9194C10.4518 17.4857 10.3766 17.0191 10.3766 16.5197C10.3766 16.0203 10.4518 15.5472 10.6022 15.1004C10.7526 14.6535 10.9621 14.2658 11.2306 13.9373C11.4992 13.6087 11.816 13.3524 12.1813 13.1685C12.5465 12.9845 12.9332 12.8925 13.3414 12.8925C13.7496 12.8925 14.1309 12.9845 14.4854 13.1685C14.8399 13.3524 15.1514 13.6087 15.4199 13.9373C15.6885 14.2658 15.8979 14.6535 16.0483 15.1004C16.1987 15.5472 16.2739 16.0203 16.2739 16.5197C16.2739 17.0191 16.1987 17.4857 16.0483 17.9194C15.8979 18.353 15.6885 18.7342 15.4199 19.0627C15.1514 19.3913 14.8399 19.6476 14.4854 19.8315C14.1309 20.0155 13.7496 20.1075 13.3414 20.1075ZM18.6264 9.30466C18.7982 9.30466 18.9433 9.37037 19.0614 9.50179C19.1796 9.63321 19.2387 9.80406 19.2387 10.0143V12.1828C19.2387 12.3931 19.1796 12.5639 19.0614 12.6953C18.9433 12.8268 18.7982 12.8925 18.6264 12.8925H16.854C16.6821 12.8925 16.5425 12.8268 16.435 12.6953C16.3276 12.5639 16.2739 12.3931 16.2739 12.1828V10.0143C16.2739 9.80406 16.3276 9.63321 16.435 9.50179C16.5425 9.37037 16.6821 9.30466 16.854 9.30466H18.6264ZM20.2054 0C21.1292 0 22.0047 0.216846 22.8318 0.650538C23.6589 1.08423 24.3786 1.67563 24.9909 2.42473C25.6032 3.17384 26.0866 4.04779 26.4411 5.0466C26.7956 6.0454 26.9728 7.10992 26.9728 8.24014V24.7204C26.9728 25.8507 26.7956 26.9217 26.4411 27.9337C26.0866 28.9456 25.6032 29.8262 24.9909 30.5753C24.3786 31.3244 23.6589 31.9158 22.8318 32.3495C22.0047 32.7832 21.1292 33 20.2054 33H6.73514C5.81134 33 4.94125 32.7832 4.12487 32.3495C3.30849 31.9158 2.59416 31.3244 1.98187 30.5753C1.36959 29.8262 0.886203 28.9456 0.531722 27.9337C0.177241 26.9217 0 25.8507 0 24.7204V8.24014C0 7.10992 0.177241 6.0454 0.531722 5.0466C0.886203 4.04779 1.36959 3.17384 1.98187 2.42473C2.59416 1.67563 3.30849 1.08423 4.12487 0.650538C4.94125 0.216846 5.81134 0 6.73514 0H20.2054ZM21.0111 9.30466C21.0111 8.70012 20.8392 8.18758 20.4955 7.76703C20.1517 7.34648 19.7328 7.1362 19.2387 7.1362H7.44411C6.94998 7.1362 6.53105 7.34648 6.18731 7.76703C5.84357 8.18758 5.6717 8.70012 5.6717 9.30466V23.7348C5.6717 24.3393 5.84357 24.8519 6.18731 25.2724C6.53105 25.693 6.94998 25.9032 7.44411 25.9032H19.2387C19.7328 25.9032 20.1517 25.693 20.4955 25.2724C20.8392 24.8519 21.0111 24.3393 21.0111 23.7348V9.30466Z" fill="#79AC78"/>
</svg>
