<svg width="27" height="33" viewBox="0 0 27 33" fill="none" xmlns="http://www.w3.org/2000/svg">
<path d="M20.265 0C21.1888 0 22.0589 0.216846 22.8753 0.650538C23.6917 1.08423 24.406 1.67563 25.0183 2.42473C25.6306 3.17384 26.1139 4.04779 26.4684 5.0466C26.8229 6.0454 27.0001 7.10992 27.0001 8.24014V24.7204C27.0001 25.8507 26.8229 26.9217 26.4684 27.9337C26.1139 28.9456 25.6306 29.8262 25.0183 30.5753C24.406 31.3244 23.6917 31.9158 22.8753 32.3495C22.0589 32.7832 21.1888 33 20.265 33H6.76249C5.83869 33 4.9686 32.7832 4.15222 32.3495C3.33583 31.9158 2.6215 31.3244 2.00922 30.5753C1.39693 29.8262 0.913547 28.9456 0.559066 27.9337C0.204584 26.9217 0.0273438 25.8507 0.0273438 24.7204V8.24014C0.0273438 7.10992 0.204584 6.0454 0.559066 5.0466C0.913547 4.04779 1.39693 3.17384 2.00922 2.42473C2.6215 1.67563 3.33583 1.08423 4.15222 0.650538C4.9686 0.216846 5.83869 0 6.76249 0H20.265ZM9.30831 12.3799H5.92462V25.7849H9.30831V12.3799ZM7.63258 11.3154C8.08373 11.3154 8.47581 11.1183 8.80881 10.724C9.14181 10.3297 9.30831 9.84349 9.30831 9.26523C9.30831 8.68698 9.14181 8.20072 8.80881 7.80645C8.47581 7.41219 8.08373 7.21505 7.63258 7.21505C7.15994 7.21505 6.75712 7.41219 6.42412 7.80645C6.09112 8.20072 5.92462 8.68698 5.92462 9.26523C5.92462 9.84349 6.09112 10.3297 6.42412 10.724C6.75712 11.1183 7.15994 11.3154 7.63258 11.3154ZM21.1029 18.0179C21.1029 17.0717 20.888 16.1452 20.4584 15.2384C20.0287 14.3315 19.4701 13.6416 18.7826 13.1685C18.1596 12.7479 17.4345 12.5245 16.6074 12.4982C15.7803 12.4719 15.0337 12.6428 14.3677 13.0108V12.3799H10.984V25.7849H14.3677V17.5842L15.7534 16.7563C15.9253 16.6511 16.1616 16.5986 16.4624 16.5986C16.7632 16.5986 16.9887 16.6643 17.1391 16.7957C17.268 16.8746 17.3969 17.0454 17.5258 17.3082C17.6547 17.5711 17.7192 17.8076 17.7192 18.0179V25.7849H21.1029V18.0179Z" fill="#79AC78"/>
</svg>
